<?xml version="1.0" encoding="UTF-8"?>
<svg width="24px" height="24px" viewBox="0 0 24 24" version="1.1" xmlns="http://www.w3.org/2000/svg" xmlns:xlink="http://www.w3.org/1999/xlink">
    <!-- Generator: Sketch 52.2 (67145) - http://www.bohemiancoding.com/sketch -->
    <title>PTLA / interactive-learning</title>
    <desc>Created with Sketch.</desc>
    <g id="Icons" stroke="none" stroke-width="1" fill="none" fill-rule="evenodd">
        <g id="PTLA-&amp;-ILAO-Content-Type-Icons" transform="translate(-158.000000, -104.000000)">
            <g id="PTLA-/-interactive-learning" transform="translate(158.000000, 104.000000)">
                <rect id="Rectangle" fill="#024442" fill-rule="nonzero" x="0" y="0" width="24" height="24"></rect>
                <g id="ic_touch_app" transform="translate(6.000000, 4.000000)" fill="#EFF2EC">
                    <g id="Icon-24px">
                        <path d="M3.11666667,6.27809524 L3.11666667,3.42857143 C3.11666667,2.37714286 3.938,1.52380952 4.95,1.52380952 C5.962,1.52380952 6.78333333,2.37714286 6.78333333,3.42857143 L6.78333333,6.27809524 C7.67066667,5.66095238 8.25,4.61714286 8.25,3.42857143 C8.25,1.53142857 6.776,0 4.95,0 C3.124,0 1.65,1.53142857 1.65,3.42857143 C1.65,4.61714286 2.22933333,5.66095238 3.11666667,6.27809524 L3.11666667,6.27809524 Z M10.3326667,9.80571429 L7.00333333,8.08380952 C6.87866667,8.03047619 6.74666667,8 6.60733333,8 L6.05,8 L6.05,3.42857143 C6.05,2.79619048 5.55866667,2.28571429 4.95,2.28571429 C4.34133333,2.28571429 3.85,2.79619048 3.85,3.42857143 L3.85,11.6114286 L1.33466667,11.0628571 C1.276,11.0552381 1.22466667,11.04 1.15866667,11.04 C0.931333333,11.04 0.726,11.1390476 0.579333333,11.2914286 L0,11.9009524 L3.62266667,15.6647619 C3.82066667,15.8704762 4.09933333,16 4.4,16 L9.37933333,16 C9.92933333,16 10.3546667,15.5809524 10.4353333,15.0247619 L10.9853333,11.0095238 C10.9926667,10.9561905 11,10.9028571 11,10.8571429 C11,10.3847619 10.7213333,9.97333333 10.3326667,9.80571429 L10.3326667,9.80571429 Z" id="Shape"></path>
                    </g>
                </g>
            </g>
        </g>
    </g>
</svg>