<?xml version="1.0" encoding="UTF-8"?>
<svg width="24px" height="24px" viewBox="0 0 24 24" version="1.1" xmlns="http://www.w3.org/2000/svg" xmlns:xlink="http://www.w3.org/1999/xlink">
    <!-- Generator: Sketch 52.2 (67145) - http://www.bohemiancoding.com/sketch -->
    <title>ILAO / news-press</title>
    <desc>Created with Sketch.</desc>
    <g id="Icons" stroke="none" stroke-width="1" fill="none" fill-rule="evenodd">
        <g id="PTLA-&amp;-ILAO-Content-Type-Icons" transform="translate(-212.000000, -322.000000)" fill-rule="nonzero">
            <g id="ILAO-/-news-press" transform="translate(212.000000, 322.000000)">
                <rect id="Rectangle" fill="#047EB6" x="0" y="0" width="24" height="24"></rect>
                <path d="M9.08333333,14.4 L16.6666667,14.4 L16.6666667,15 L9.08333333,15 L9.08333333,14.4 Z M16.6666667,12.6 L9.08333333,12.6 L9.08333333,13.2 L16.6666667,13.2 L16.6666667,12.6 Z M16.6666667,9 L13.75,9 L13.75,9.6 L16.6666667,9.6 L16.6666667,9 Z M16.6666667,10.8 L13.75,10.8 L13.75,11.4 L16.6666667,11.4 L16.6666667,10.8 Z M6.75,6 L6.75,16.3194 C6.75,16.782 6.16666667,16.782 6.16666667,16.3194 L6.16666667,7.2 L5,7.2 L5,16.788 C5,17.457 5.52791667,18 6.17833333,18 L17.8205,18 C18.4720833,18 19,17.4576 19,16.788 L19,6 L6.75,6 Z M17.8333333,16.2 L7.91666667,16.2 L7.91666667,7.2 L17.8333333,7.2 L17.8333333,16.2 Z M12.5833333,9 L9.08333333,9 L9.08333333,11.4 L12.5833333,11.4 L12.5833333,9 Z" id="Shape" fill="#E0F5FC"></path>
            </g>
        </g>
    </g>
</svg>