<?xml version="1.0" encoding="UTF-8"?>
<svg width="24px" height="24px" viewBox="0 0 24 24" version="1.1" xmlns="http://www.w3.org/2000/svg" xmlns:xlink="http://www.w3.org/1999/xlink">
    <!-- Generator: Sketch 52.2 (67145) - http://www.bohemiancoding.com/sketch -->
    <title>ILAO / organization</title>
    <desc>Created with Sketch.</desc>
    <g id="Icons" stroke="none" stroke-width="1" fill="none" fill-rule="evenodd">
        <g id="PTLA-&amp;-ILAO-Content-Type-Icons" transform="translate(-50.000000, -375.000000)">
            <g id="ILAO-/-organization" transform="translate(50.000000, 375.000000)">
                <rect id="Rectangle" fill="#047EB6" fill-rule="nonzero" x="0" y="0" width="24" height="24"></rect>
                <g id="ic_accessibility" transform="translate(5.000000, 4.000000)" fill="#E0F5FC">
                    <g id="Icon-24px">
                        <path d="M7,0.5 C7.825,0.5 8.5,1.175 8.5,2 C8.5,2.825 7.825,3.5 7,3.5 C6.175,3.5 5.5,2.825 5.5,2 C5.5,1.175 6.175,0.5 7,0.5 L7,0.5 Z M13.75,5.75 L9.25,5.75 L9.25,15.5 L7.75,15.5 L7.75,11 L6.25,11 L6.25,15.5 L4.75,15.5 L4.75,5.75 L0.25,5.75 L0.25,4.25 L13.75,4.25 L13.75,5.75 L13.75,5.75 Z" id="Shape"></path>
                    </g>
                </g>
            </g>
        </g>
    </g>
</svg>