<?xml version="1.0" encoding="UTF-8"?>
<svg width="24px" height="24px" viewBox="0 0 24 24" version="1.1" xmlns="http://www.w3.org/2000/svg" xmlns:xlink="http://www.w3.org/1999/xlink">
    <!-- Generator: Sketch 52.2 (67145) - http://www.bohemiancoding.com/sketch -->
    <title>ILAO / podcasts</title>
    <desc>Created with Sketch.</desc>
    <g id="Icons" stroke="none" stroke-width="1" fill="none" fill-rule="evenodd">
        <g id="PTLA-&amp;-ILAO-Content-Type-Icons" transform="translate(-50.000000, -267.000000)" fill-rule="nonzero">
            <g id="ILAO-/-podcasts" transform="translate(50.000000, 267.000000)">
                <rect id="Rectangle" fill="#047EB6" x="0" y="0" width="24" height="24"></rect>
                <g id="Group-6" transform="translate(4.000000, 4.000000)">
                    <path d="M8,12.75 C5.37664744,12.75 3.25,10.6233526 3.25,8 C3.25,5.37664744 5.37664744,3.25 8,3.25 C10.6233526,3.25 12.75,5.37664744 12.75,8 C12.75,10.6233526 10.6233526,12.75 8,12.75 Z M8,11.25 C9.79492544,11.25 11.25,9.79492544 11.25,8 C11.25,6.20507456 9.79492544,4.75 8,4.75 C6.20507456,4.75 4.75,6.20507456 4.75,8 C4.75,9.79492544 6.20507456,11.25 8,11.25 Z" id="Oval" fill="#E0F5FC"></path>
                    <path d="M8,15.5067677 C3.72270692,15.5067677 0.25,12.0943947 0.25,7.87838384 C0.25,3.66237302 3.72270692,0.25 8,0.25 C12.2772931,0.25 15.75,3.66237302 15.75,7.87838384 C15.75,12.0943947 12.2772931,15.5067677 8,15.5067677 Z M8,14.0067677 C11.4546934,14.0067677 14.25,11.260026 14.25,7.87838384 C14.25,4.49674166 11.4546934,1.75 8,1.75 C4.54530658,1.75 1.75,4.49674166 1.75,7.87838384 C1.75,11.260026 4.54530658,14.0067677 8,14.0067677 Z" id="Oval" fill="#E0F5FC"></path>
                    <polygon id="Rectangle" fill="#047EB6" points="5 8.5979798 11 8.5979798 11.75 16.3979798 4.25 16.3979798"></polygon>
                    <circle id="Oval" fill="#E0F5FC" cx="8" cy="8" r="2"></circle>
                    <rect id="Rectangle" fill="#E0F5FC" x="6" y="10.3349495" width="4" height="6" rx="2"></rect>
                </g>
            </g>
        </g>
    </g>
</svg>