<?xml version="1.0" encoding="UTF-8"?>
<svg width="24px" height="24px" viewBox="0 0 24 24" version="1.1" xmlns="http://www.w3.org/2000/svg" xmlns:xlink="http://www.w3.org/1999/xlink">
    <!-- Generator: Sketch 52.2 (67145) - http://www.bohemiancoding.com/sketch -->
    <title>ILAO / process-content</title>
    <desc>Created with Sketch.</desc>
    <g id="Icons" stroke="none" stroke-width="1" fill="none" fill-rule="evenodd">
        <g id="PTLA-&amp;-ILAO-Content-Type-Icons" transform="translate(-158.000000, -213.000000)">
            <g id="ILAO-/-process-content" transform="translate(158.000000, 213.000000)">
                <g id="Group-20" fill-rule="nonzero">
                    <rect id="Rectangle" fill="#047EB6" x="0" y="0" width="24" height="24"></rect>
                    <path d="M9,7 L19,7 L19,9 L9,9 L9,7 Z M9,11 L19,11 L19,13 L9,13 L9,11 Z M9,15 L19,15 L19,17 L9,17 L9,15 Z M6,17 C5.44771525,17 5,16.5522847 5,16 C5,15.4477153 5.44771525,15 6,15 C6.55228475,15 7,15.4477153 7,16 C7,16.5522847 6.55228475,17 6,17 Z M6,13 C5.44771525,13 5,12.5522847 5,12 C5,11.4477153 5.44771525,11 6,11 C6.55228475,11 7,11.4477153 7,12 C7,12.5522847 6.55228475,13 6,13 Z M6,9 C5.44771525,9 5,8.55228475 5,8 C5,7.44771525 5.44771525,7 6,7 C6.55228475,7 7,7.44771525 7,8 C7,8.55228475 6.55228475,9 6,9 Z" id="Combined-Shape" fill="#E0F5FC"></path>
                </g>
                <g id="Group-11" transform="translate(5.000000, 7.000000)"></g>
            </g>
        </g>
    </g>
</svg>