<?xml version="1.0" encoding="UTF-8"?>
<svg width="24px" height="24px" viewBox="0 0 24 24" version="1.1" xmlns="http://www.w3.org/2000/svg" xmlns:xlink="http://www.w3.org/1999/xlink">
    <!-- Generator: Sketch 52.2 (67145) - http://www.bohemiancoding.com/sketch -->
    <title>ILAO / static-forms</title>
    <desc>Created with Sketch.</desc>
    <g id="Icons" stroke="none" stroke-width="1" fill="none" fill-rule="evenodd">
        <g id="PTLA-&amp;-ILAO-Content-Type-Icons" transform="translate(-104.000000, -321.000000)" fill-rule="nonzero">
            <g id="ILAO-/-static-forms" transform="translate(104.000000, 321.000000)">
                <rect id="Rectangle" fill="#047EB6" x="0" y="0" width="24" height="24"></rect>
                <g id="Group-7" transform="translate(6.000000, 4.000000)">
                    <path d="M1,5 L1,13 L11,13 L11,5 L1,5 Z M13,3 L13,15 L-1,15 L-1,3 L13,3 Z" id="Rectangle" fill="#E0F5FC" transform="translate(6.000000, 9.000000) rotate(-270.000000) translate(-6.000000, -9.000000) "></path>
                    <path d="M4.26756439,3 C4.09739429,2.70582663 4,2.36428714 4,2 C4,0.8954305 4.8954305,0 6,0 C7.1045695,0 8,0.8954305 8,2 C8,2.36428714 7.90260571,2.70582663 7.73243561,3 L9,3 L9,5 L3,5 L3,3 L4.26756439,3 Z" id="Combined-Shape" fill="#E0F5FC"></path>
                    <circle id="Oval" fill="#047EB6" cx="6" cy="2" r="1"></circle>
                </g>
            </g>
        </g>
    </g>
</svg>